<svg id="svg" version="1.1" width="1000" height="145" xmlns="http://www.w3.org/2000/svg" xmlns:xlink="http://www.w3.org/1999/xlink" style="display: block;"><g id="svgg"><path id="path0" d="M173.601 27.700 C 173.600 28.109,175.902 28.082,176.156 27.671 C 176.268 27.490,175.739 27.355,174.981 27.371 C 174.223 27.387,173.602 27.535,173.601 27.700 M196.000 27.600 L 195.000 27.920 196.000 27.954 C 196.550 27.973,197.270 27.813,197.600 27.600 C 198.364 27.106,197.542 27.106,196.000 27.600 M322.000 27.600 L 321.000 27.920 322.000 27.954 C 322.550 27.973,323.270 27.813,323.600 27.600 C 324.364 27.106,323.542 27.106,322.000 27.600 M330.800 27.600 L 329.800 27.920 330.900 27.960 C 331.505 27.982,332.000 27.820,332.000 27.600 C 332.000 27.380,331.955 27.218,331.900 27.240 C 331.845 27.262,331.350 27.424,330.800 27.600 M190.931 31.400 C 190.933 32.940,191.005 33.521,191.092 32.691 C 191.179 31.861,191.177 30.601,191.089 29.891 C 191.000 29.181,190.929 29.860,190.931 31.400 M272.501 30.600 C 272.505 31.480,272.587 31.793,272.683 31.295 C 272.779 30.798,272.775 30.078,272.675 29.695 C 272.575 29.313,272.496 29.720,272.501 30.600 " stroke="none" fill="#000000" fill-rule="evenodd"></path><path id="path1" d="M194.969 27.506 C 194.408 27.889,194.265 32.022,194.786 32.800 C 195.074 33.230,195.189 32.585,195.194 30.528 C 195.200 27.870,195.267 27.643,196.100 27.482 C 196.876 27.333,196.890 27.302,196.200 27.261 C 195.760 27.234,195.206 27.344,194.969 27.506 M272.909 30.400 C 272.909 31.390,272.987 31.795,273.082 31.300 C 273.178 30.805,273.178 29.995,273.082 29.500 C 272.987 29.005,272.909 29.410,272.909 30.400 M28.976 50.438 C 28.827 50.679,28.996 51.130,29.351 51.440 C 29.706 51.749,29.832 51.800,29.630 51.553 C 29.428 51.305,29.358 50.854,29.474 50.551 C 29.726 49.895,29.363 49.813,28.976 50.438 " stroke="none" fill="#555555" fill-rule="evenodd"></path><path id="path2" d="M25.200 3.600 C 25.200 3.820,24.401 4.000,23.424 4.000 C 22.447 4.000,21.536 4.180,21.400 4.400 C 21.264 4.620,20.711 4.800,20.171 4.800 C 19.259 4.800,17.663 5.471,17.200 6.050 C 17.090 6.187,16.415 6.426,15.700 6.582 C 14.985 6.737,14.400 7.029,14.400 7.232 C 14.400 7.434,14.080 7.600,13.688 7.600 C 13.297 7.600,12.717 7.960,12.400 8.400 C 12.083 8.840,11.493 9.200,11.088 9.200 C 10.684 9.200,10.441 9.342,10.548 9.516 C 10.655 9.690,10.216 10.185,9.573 10.616 C 8.929 11.047,8.402 11.633,8.401 11.917 C 8.401 12.202,7.950 12.920,7.400 13.513 C 6.850 14.107,6.400 14.819,6.400 15.096 C 6.400 15.373,6.220 15.600,6.000 15.600 C 5.780 15.600,5.600 15.960,5.600 16.400 C 5.600 16.840,5.420 17.200,5.200 17.200 C 4.980 17.200,4.800 17.560,4.800 18.000 C 4.800 18.440,4.639 18.800,4.442 18.800 C 3.984 18.800,3.572 21.354,3.392 25.300 C 3.312 27.060,3.413 28.400,3.625 28.400 C 3.831 28.400,4.000 28.940,4.000 29.600 C 4.000 30.260,4.180 30.800,4.400 30.800 C 4.620 30.800,4.800 31.250,4.800 31.800 C 4.800 32.350,4.980 32.800,5.200 32.800 C 5.420 32.800,5.600 33.120,5.600 33.512 C 5.600 33.903,5.950 34.476,6.379 34.785 C 6.807 35.093,7.063 35.498,6.948 35.684 C 6.833 35.870,7.259 36.512,7.894 37.111 C 8.529 37.710,9.170 38.522,9.318 38.915 C 9.465 39.308,10.128 39.938,10.791 40.315 C 11.453 40.692,11.996 41.135,11.997 41.300 C 11.999 41.465,12.278 41.600,12.617 41.600 C 12.956 41.600,13.620 41.960,14.092 42.400 C 14.564 42.840,15.288 43.200,15.699 43.200 C 16.111 43.200,16.359 43.343,16.251 43.517 C 16.144 43.691,16.618 43.877,17.307 43.929 C 18.969 44.056,19.092 44.253,18.064 45.144 C 17.589 45.557,17.200 46.098,17.200 46.347 C 17.200 46.596,16.883 46.800,16.496 46.800 C 16.109 46.800,15.579 47.142,15.318 47.560 C 13.818 49.962,6.021 50.227,6.003 47.876 C 6.001 47.698,6.180 47.664,6.400 47.800 C 6.629 47.941,6.800 47.588,6.800 46.975 C 6.800 46.123,6.910 45.994,7.337 46.348 C 7.974 46.876,8.400 46.549,8.400 45.533 C 8.400 45.130,8.145 44.800,7.833 44.800 C 7.522 44.800,7.192 44.577,7.101 44.304 C 6.884 43.653,5.600 44.889,5.600 45.748 C 5.600 46.081,5.420 46.464,5.200 46.600 C 4.679 46.922,4.679 48.800,5.200 48.800 C 5.420 48.800,5.600 49.083,5.600 49.429 C 5.600 50.147,6.534 51.200,7.171 51.200 C 7.407 51.200,7.600 51.380,7.600 51.600 C 7.600 52.182,12.138 52.094,12.779 51.500 C 13.212 51.098,13.259 51.104,13.017 51.530 C 12.767 51.969,12.871 51.969,13.626 51.530 C 15.096 50.674,20.000 45.648,20.000 44.997 C 20.000 44.669,20.180 44.400,20.400 44.400 C 20.620 44.400,20.800 44.580,20.800 44.800 C 20.800 45.020,21.160 45.200,21.600 45.200 C 22.040 45.200,22.400 45.380,22.400 45.600 C 22.400 45.825,23.522 46.000,24.967 46.000 C 26.646 46.000,27.603 46.173,27.735 46.500 C 27.896 46.900,27.943 46.900,27.968 46.500 C 28.007 45.888,30.641 45.819,31.012 46.419 C 31.186 46.701,31.430 46.707,31.755 46.437 C 32.021 46.217,32.893 45.992,33.693 45.938 C 34.494 45.884,35.059 45.696,34.951 45.520 C 34.842 45.344,35.136 45.200,35.605 45.200 C 36.526 45.200,37.600 46.062,37.600 46.800 C 37.600 47.377,38.605 48.400,39.171 48.400 C 39.407 48.400,39.600 48.593,39.600 48.829 C 39.600 49.457,40.426 50.172,41.900 50.822 C 42.615 51.137,43.200 51.531,43.200 51.698 C 43.200 51.864,44.361 52.000,45.779 52.000 C 48.767 52.000,50.400 50.951,50.400 49.031 C 50.400 48.318,50.556 48.049,50.862 48.238 C 51.148 48.415,51.215 48.348,51.038 48.062 C 50.881 47.808,50.508 47.600,50.210 47.600 C 49.911 47.600,49.596 47.388,49.509 47.128 C 49.153 46.060,48.061 47.146,48.255 48.376 L 48.448 49.600 45.988 49.600 C 43.622 49.600,43.466 49.536,41.864 47.899 C 40.949 46.963,39.702 45.810,39.092 45.335 L 37.985 44.473 39.690 44.185 C 40.628 44.026,41.698 43.548,42.068 43.122 C 42.437 42.696,42.820 42.404,42.919 42.474 C 43.018 42.543,43.696 42.105,44.426 41.500 C 45.157 40.895,45.910 40.400,46.101 40.400 C 46.291 40.400,46.360 40.258,46.252 40.085 C 46.145 39.912,46.585 39.536,47.229 39.251 C 47.873 38.966,48.400 38.454,48.400 38.112 C 48.400 37.771,48.850 37.075,49.400 36.565 C 49.950 36.055,50.400 35.399,50.400 35.107 C 50.400 34.815,50.760 34.317,51.200 34.000 C 51.640 33.683,52.000 33.193,52.000 32.912 C 52.000 32.630,52.180 32.400,52.400 32.400 C 52.631 32.400,52.800 33.675,52.800 35.424 C 52.800 37.337,52.947 38.356,53.200 38.200 C 53.420 38.064,53.600 38.323,53.600 38.776 C 53.600 39.855,57.350 40.028,57.757 38.967 C 58.250 37.682,58.028 10.988,57.520 10.480 C 56.863 9.823,51.424 9.840,50.904 10.500 C 50.688 10.775,50.392 11.495,50.248 12.100 C 50.103 12.705,49.772 13.200,49.512 13.200 C 49.153 13.200,49.155 13.085,49.520 12.720 C 50.672 11.568,50.050 9.723,48.200 8.800 C 47.540 8.471,46.910 8.102,46.800 7.980 C 46.357 7.490,43.626 6.400,42.840 6.400 C 42.378 6.400,42.000 6.220,42.000 6.000 C 42.000 5.780,41.640 5.600,41.200 5.600 C 40.760 5.600,40.400 5.420,40.400 5.200 C 40.400 4.980,39.781 4.800,39.024 4.800 C 38.267 4.800,37.536 4.620,37.400 4.400 C 37.264 4.180,36.533 4.000,35.776 4.000 C 34.945 4.000,34.398 3.802,34.394 3.500 C 34.390 3.167,34.258 3.200,34.000 3.600 C 33.742 4.000,33.610 4.033,33.606 3.700 C 33.602 3.332,32.490 3.200,29.400 3.200 C 26.867 3.200,25.200 3.359,25.200 3.600 M29.200 8.000 C 29.200 8.220,30.190 8.400,31.400 8.400 C 32.610 8.400,33.600 8.555,33.600 8.744 C 33.600 8.934,34.701 9.189,36.046 9.311 C 37.392 9.433,38.688 9.728,38.926 9.966 C 39.165 10.205,39.669 10.400,40.047 10.400 C 40.424 10.400,40.793 10.536,40.867 10.702 C 40.940 10.868,42.235 11.625,43.744 12.384 C 45.253 13.143,46.578 13.997,46.687 14.282 C 46.796 14.567,47.406 14.800,48.043 14.800 C 48.933 14.800,49.200 14.984,49.200 15.600 C 49.200 16.040,49.058 16.400,48.885 16.400 C 48.712 16.400,48.526 16.985,48.472 17.700 C 48.419 18.415,48.200 19.060,47.987 19.133 C 47.774 19.207,47.600 19.792,47.600 20.433 C 47.600 21.075,47.434 21.600,47.232 21.600 C 47.029 21.600,46.745 22.140,46.600 22.800 C 46.270 24.302,45.943 24.379,39.400 24.502 L 34.200 24.600 34.078 26.500 L 33.956 28.400 38.666 28.400 L 43.375 28.400 41.278 30.400 C 40.125 31.500,38.995 32.400,38.767 32.400 C 38.539 32.400,38.464 32.580,38.600 32.800 C 38.736 33.020,38.630 33.200,38.363 33.200 C 38.097 33.200,36.919 33.670,35.745 34.245 C 34.570 34.819,33.337 35.185,33.005 35.057 C 32.325 34.796,32.171 33.600,32.818 33.600 C 33.501 33.600,35.265 31.629,34.986 31.177 C 34.812 30.895,34.547 30.912,34.164 31.230 C 33.726 31.594,33.593 31.576,33.568 31.149 C 33.545 30.744,33.484 30.731,33.335 31.100 C 32.996 31.939,31.600 31.698,31.600 30.800 C 31.600 30.360,31.420 30.000,31.200 30.000 C 30.626 30.000,30.706 28.911,31.300 28.633 C 31.700 28.447,31.700 28.353,31.300 28.167 C 31.025 28.038,30.800 27.498,30.800 26.967 C 30.800 26.435,31.025 25.986,31.300 25.968 C 31.700 25.943,31.700 25.896,31.300 25.735 C 31.025 25.624,30.800 25.098,30.800 24.567 C 30.800 23.542,28.367 23.082,27.800 24.000 C 27.664 24.220,26.843 24.400,25.976 24.400 C 25.109 24.400,24.400 24.220,24.400 24.000 C 24.400 23.780,24.040 23.600,23.600 23.600 C 23.160 23.600,22.800 23.420,22.800 23.200 C 22.800 22.980,22.558 22.800,22.261 22.800 C 20.602 22.800,20.000 21.422,20.000 17.629 C 20.000 15.280,20.144 14.042,20.400 14.200 C 20.620 14.336,20.800 14.195,20.800 13.887 C 20.800 13.578,21.430 12.987,22.200 12.572 C 22.970 12.157,23.600 11.679,23.600 11.509 C 23.600 11.339,24.590 11.200,25.800 11.200 C 27.010 11.200,28.000 11.380,28.000 11.600 C 28.000 11.820,28.349 12.000,28.776 12.000 C 29.203 12.000,29.664 12.180,29.800 12.400 C 29.936 12.620,30.407 12.800,30.847 12.800 C 31.381 12.800,31.547 12.967,31.347 13.300 C 31.143 13.640,31.263 13.624,31.723 13.251 C 33.299 11.973,32.317 10.569,29.580 10.186 C 28.601 10.050,27.391 9.739,26.892 9.497 C 26.218 9.170,25.862 9.178,25.512 9.528 C 25.252 9.788,24.548 10.000,23.946 10.000 C 21.266 10.000,18.010 12.795,18.003 15.100 C 18.002 15.815,17.820 16.400,17.600 16.400 C 17.380 16.400,17.200 17.300,17.200 18.400 C 17.200 19.500,17.358 20.400,17.551 20.400 C 17.745 20.400,18.110 20.895,18.363 21.500 C 18.927 22.850,20.787 24.947,21.601 25.149 C 24.181 25.793,24.968 25.911,25.449 25.726 C 25.753 25.609,26.474 25.632,27.052 25.777 L 28.101 26.041 27.209 26.991 C 26.718 27.513,26.436 28.134,26.582 28.370 C 26.728 28.607,26.657 28.800,26.424 28.800 C 26.191 28.800,26.000 29.146,26.000 29.568 C 26.000 30.097,25.625 30.419,24.800 30.600 C 23.578 30.868,23.511 31.213,24.229 33.521 C 24.318 33.807,24.213 33.932,23.995 33.797 C 23.778 33.663,23.600 33.943,23.600 34.419 C 23.600 35.087,23.440 35.220,22.900 34.997 C 22.515 34.839,21.885 34.619,21.500 34.508 C 21.115 34.397,20.800 34.170,20.800 34.003 C 20.800 33.837,20.274 33.595,19.632 33.466 C 18.939 33.328,18.359 32.901,18.205 32.416 C 18.062 31.966,17.600 31.600,17.173 31.600 C 16.748 31.600,16.400 31.412,16.400 31.183 C 16.400 30.954,16.040 30.380,15.600 29.908 C 15.160 29.436,14.800 28.723,14.800 28.325 C 14.800 27.926,14.620 27.600,14.400 27.600 C 14.180 27.600,14.000 26.880,14.000 26.000 L 14.000 24.400 11.942 24.400 L 9.884 24.400 10.134 27.071 C 10.271 28.540,10.522 29.845,10.692 29.971 C 10.862 30.097,11.271 30.740,11.601 31.400 C 11.930 32.060,12.695 33.077,13.300 33.660 C 13.905 34.244,14.400 35.009,14.400 35.360 C 14.400 35.712,14.648 36.000,14.951 36.000 C 15.254 36.000,15.726 36.270,16.000 36.600 C 16.274 36.930,16.817 37.200,17.206 37.200 C 17.596 37.200,18.022 37.481,18.154 37.825 C 18.286 38.169,18.576 38.339,18.797 38.202 C 19.019 38.065,19.200 38.143,19.200 38.376 C 19.200 38.609,19.566 38.800,20.013 38.800 C 20.859 38.800,21.523 39.826,20.995 40.317 C 20.827 40.473,20.610 40.375,20.512 40.100 C 20.414 39.825,19.898 39.600,19.367 39.600 C 18.835 39.600,18.400 39.420,18.400 39.200 C 18.400 38.980,18.130 38.800,17.800 38.800 C 17.470 38.800,17.200 38.620,17.200 38.400 C 17.200 38.180,16.853 38.000,16.429 38.000 C 16.004 38.000,15.387 37.730,15.057 37.400 C 14.727 37.070,14.304 36.800,14.117 36.800 C 13.930 36.800,13.517 36.440,13.200 36.000 C 12.883 35.560,12.303 35.200,11.912 35.200 C 11.520 35.200,11.200 34.930,11.200 34.600 C 11.200 34.270,11.055 34.000,10.877 34.000 C 10.473 34.000,9.200 31.164,9.200 30.266 C 9.200 29.900,9.020 29.600,8.800 29.600 C 8.555 29.600,8.400 27.725,8.400 24.776 C 8.400 21.663,8.542 20.040,8.800 20.200 C 9.026 20.340,9.200 20.014,9.200 19.452 C 9.200 18.905,9.470 18.187,9.800 17.857 C 10.130 17.527,10.400 17.140,10.400 16.997 C 10.400 16.594,13.291 13.914,14.926 12.800 C 15.734 12.250,16.396 11.665,16.397 11.500 C 16.399 11.335,16.760 11.200,17.200 11.200 C 17.640 11.200,18.000 11.020,18.000 10.800 C 18.000 10.580,18.270 10.400,18.600 10.400 C 18.930 10.400,19.200 10.226,19.200 10.014 C 19.200 9.801,20.104 9.508,21.209 9.361 C 22.314 9.214,23.315 8.938,23.433 8.747 C 23.551 8.556,24.537 8.400,25.624 8.400 C 26.711 8.400,27.600 8.220,27.600 8.000 C 27.600 7.780,27.960 7.600,28.400 7.600 C 28.840 7.600,29.200 7.780,29.200 8.000 M50.000 14.424 C 50.000 14.877,49.820 15.136,49.600 15.000 C 49.380 14.864,49.200 14.493,49.200 14.176 C 49.200 13.859,49.380 13.600,49.600 13.600 C 49.820 13.600,50.000 13.971,50.000 14.424 M53.600 18.680 C 53.600 19.484,53.484 19.644,53.147 19.307 C 52.898 19.058,52.802 18.572,52.934 18.227 C 53.301 17.273,53.600 17.477,53.600 18.680 M246.100 19.465 C 245.721 19.618,245.600 21.843,245.600 28.676 C 245.600 36.727,245.667 37.660,246.233 37.443 C 246.581 37.309,247.391 37.200,248.033 37.200 L 249.200 37.200 249.200 28.200 L 249.200 19.200 247.900 19.232 C 247.185 19.249,246.375 19.354,246.100 19.465 M52.800 20.200 C 52.800 20.530,52.980 20.800,53.200 20.800 C 53.420 20.800,53.600 21.610,53.600 22.600 L 53.600 24.400 52.000 24.400 C 50.818 24.400,50.400 24.237,50.400 23.776 C 50.400 23.433,50.580 23.264,50.800 23.400 C 51.020 23.536,51.200 23.277,51.200 22.824 C 51.200 22.371,51.380 22.000,51.600 22.000 C 51.820 22.000,52.000 21.460,52.000 20.800 C 52.000 20.140,52.180 19.600,52.400 19.600 C 52.620 19.600,52.800 19.870,52.800 20.200 M291.890 19.898 C 290.827 19.980,290.084 20.212,290.214 20.422 C 290.342 20.630,290.248 20.800,290.005 20.800 C 289.463 20.800,287.600 22.618,287.600 23.148 C 287.600 23.360,287.393 23.602,287.140 23.687 C 286.886 23.771,286.594 24.866,286.490 26.120 C 286.386 27.374,286.143 28.400,285.950 28.400 C 285.458 28.400,285.511 30.698,286.011 31.007 C 286.236 31.146,286.381 31.472,286.332 31.730 C 286.201 32.424,286.841 34.156,287.354 34.494 C 287.656 34.693,287.621 34.790,287.246 34.794 C 286.437 34.803,289.271 37.186,290.100 37.194 C 290.485 37.197,290.800 37.380,290.800 37.600 C 290.800 38.227,298.453 38.086,299.300 37.443 C 299.877 37.005,300.000 36.269,300.000 33.256 L 300.000 29.600 298.771 29.600 C 296.881 29.600,296.304 30.452,296.463 33.009 L 296.600 35.201 294.900 35.201 C 293.872 35.200,293.200 35.016,293.200 34.733 C 293.200 34.477,293.095 34.372,292.966 34.501 C 292.837 34.629,292.213 34.554,291.580 34.333 C 290.433 33.933,288.861 30.405,289.678 30.067 C 290.163 29.866,290.065 28.225,289.537 27.697 C 289.186 27.346,289.195 27.089,289.571 26.634 C 289.845 26.305,289.967 25.870,289.843 25.669 C 289.563 25.216,291.991 23.147,292.460 23.437 C 292.647 23.553,292.800 23.457,292.800 23.224 C 292.800 22.681,297.066 22.659,297.400 23.200 C 298.005 24.179,300.621 23.651,300.714 22.531 C 300.892 20.379,297.767 19.447,291.890 19.898 M80.686 20.248 C 80.229 20.704,80.340 33.600,80.800 33.600 C 81.020 33.600,81.200 33.960,81.200 34.400 C 81.200 34.840,81.380 35.200,81.600 35.200 C 81.820 35.200,82.000 35.577,82.000 36.037 C 82.000 36.537,82.321 36.959,82.796 37.083 C 83.233 37.197,83.507 37.426,83.405 37.591 C 83.303 37.757,84.701 37.924,86.512 37.964 C 89.848 38.038,92.800 36.563,92.800 34.822 C 92.800 34.564,92.965 34.455,93.168 34.580 C 93.386 34.715,93.554 31.791,93.582 27.404 L 93.629 20.000 92.214 20.000 L 90.800 20.000 90.798 25.500 C 90.795 33.435,90.147 35.175,87.200 35.174 C 84.283 35.173,84.034 34.550,83.910 26.944 L 83.800 20.200 82.386 20.081 C 81.608 20.015,80.843 20.090,80.686 20.248 M110.800 21.800 L 110.800 23.646 112.500 23.523 C 114.196 23.400,114.200 23.396,114.200 21.800 C 114.200 20.204,114.196 20.200,112.500 20.077 L 110.800 19.954 110.800 21.800 M163.277 21.700 C 163.399 23.392,163.408 23.401,165.100 23.523 L 166.800 23.646 166.800 21.823 L 166.800 20.000 164.977 20.000 L 163.154 20.000 163.277 21.700 M334.943 20.500 C 334.747 20.775,334.614 21.270,334.648 21.600 C 334.681 21.930,334.728 22.515,334.754 22.900 C 334.879 24.794,337.600 23.742,337.600 21.800 C 337.600 19.926,335.931 19.109,334.943 20.500 M179.386 21.223 C 178.766 22.225,179.588 23.600,180.808 23.600 C 181.492 23.600,182.003 23.387,182.006 23.100 C 182.010 22.767,182.142 22.800,182.400 23.200 C 182.706 23.674,182.789 23.585,182.794 22.780 C 182.804 21.086,180.205 19.898,179.386 21.223 M183.600 21.992 C 183.600 23.920,186.866 24.335,187.135 22.441 C 187.298 21.296,186.640 20.814,184.900 20.806 C 183.723 20.801,183.600 20.913,183.600 21.992 M305.200 22.200 C 305.200 23.533,305.267 23.600,306.600 23.600 C 307.933 23.600,308.000 23.533,308.000 22.200 C 308.000 20.867,307.933 20.800,306.600 20.800 C 305.267 20.800,305.200 20.867,305.200 22.200 M309.600 22.205 L 309.600 23.646 311.300 23.523 C 314.031 23.325,314.136 20.998,311.420 20.857 L 309.600 20.763 309.600 22.205 M170.700 22.276 C 170.276 22.387,170.000 22.841,170.000 23.429 C 170.000 24.133,169.780 24.400,169.200 24.400 C 168.552 24.400,168.400 24.667,168.400 25.800 C 168.400 26.933,168.552 27.200,169.200 27.200 C 169.941 27.200,170.004 27.487,170.061 31.100 C 170.139 36.119,170.048 35.684,171.289 36.925 C 172.626 38.263,175.439 38.447,176.452 37.264 C 177.274 36.305,176.549 35.200,175.099 35.200 C 173.786 35.200,173.600 34.626,173.600 30.567 L 173.600 27.200 175.100 27.153 C 175.925 27.127,176.747 27.130,176.926 27.161 C 177.105 27.192,177.195 26.628,177.126 25.909 C 177.008 24.678,176.898 24.593,175.300 24.477 C 173.937 24.378,173.600 24.203,173.600 23.591 C 173.600 23.171,173.252 22.642,172.826 22.414 C 172.022 21.983,171.859 21.973,170.700 22.276 M191.553 22.675 C 191.527 23.074,191.531 23.612,191.563 23.871 C 191.595 24.130,191.212 24.400,190.711 24.471 C 190.008 24.571,189.771 24.898,189.674 25.909 C 189.605 26.628,189.695 27.192,189.874 27.161 C 191.388 26.901,191.470 27.121,191.555 31.700 C 191.660 37.283,192.203 38.098,195.727 37.955 C 198.512 37.842,199.361 35.200,196.613 35.200 C 195.600 35.200,195.200 35.023,195.200 34.576 C 195.200 34.233,195.020 34.064,194.800 34.200 C 194.545 34.358,194.400 33.137,194.400 30.824 L 194.400 27.200 196.200 27.200 C 197.990 27.200,198.000 27.193,198.000 25.800 C 198.000 24.411,197.987 24.400,196.227 24.400 C 194.589 24.400,194.443 24.316,194.327 23.300 C 194.169 21.930,191.639 21.359,191.553 22.675 M317.600 23.200 C 317.600 24.273,317.260 24.599,316.300 24.447 C 315.689 24.351,316.026 25.877,316.800 26.708 C 317.484 27.442,317.600 28.119,317.600 31.383 C 317.600 33.661,317.761 35.200,318.000 35.200 C 318.220 35.200,318.406 35.425,318.413 35.700 C 318.449 37.050,319.916 38.000,321.964 38.000 L 324.000 38.000 324.000 36.600 C 324.000 35.267,323.933 35.200,322.600 35.200 L 321.200 35.200 321.200 31.200 L 321.200 27.200 322.767 27.200 C 323.646 27.200,324.422 26.981,324.535 26.700 C 324.696 26.300,324.743 26.300,324.768 26.700 C 324.786 26.975,325.160 27.200,325.600 27.200 C 326.344 27.200,326.400 27.467,326.400 30.990 C 326.400 34.042,326.552 35.030,327.179 36.062 C 327.608 36.767,327.885 37.463,327.794 37.609 C 327.704 37.755,328.793 37.913,330.215 37.959 L 332.800 38.042 332.800 36.621 C 332.800 35.264,332.737 35.200,331.400 35.200 C 330.630 35.200,329.995 35.065,329.988 34.900 C 329.982 34.735,329.937 32.935,329.888 30.900 L 329.800 27.199 331.325 27.200 C 333.500 27.200,333.477 24.685,331.300 24.475 C 330.495 24.397,330.000 24.131,330.000 23.775 C 330.000 23.459,329.820 23.200,329.600 23.200 C 329.380 23.200,329.200 22.930,329.200 22.600 C 329.200 21.984,328.156 21.812,327.033 22.243 C 326.685 22.376,326.400 22.916,326.400 23.443 C 326.400 24.133,326.177 24.400,325.600 24.400 C 325.160 24.400,324.800 24.616,324.800 24.880 C 324.800 25.253,324.693 25.253,324.320 24.880 C 324.056 24.616,323.246 24.400,322.520 24.400 C 321.394 24.400,321.200 24.259,321.200 23.443 C 321.200 22.390,320.542 22.000,318.767 22.000 C 317.737 22.000,317.600 22.141,317.600 23.200 M97.200 30.800 L 97.200 37.200 98.600 37.200 L 100.000 37.200 100.000 33.000 C 100.000 29.544,100.106 28.800,100.597 28.800 C 100.925 28.800,101.418 28.440,101.693 28.000 C 103.246 25.512,104.400 27.546,104.400 32.771 L 104.400 37.200 105.800 37.200 L 107.200 37.200 107.200 31.782 C 107.200 26.563,107.164 26.328,106.218 25.382 C 105.203 24.366,101.600 23.912,101.600 24.800 C 101.600 25.020,101.240 25.200,100.800 25.200 C 100.360 25.200,100.000 25.020,100.000 24.800 C 100.000 24.580,99.370 24.400,98.600 24.400 L 97.200 24.400 97.200 30.800 M110.820 30.800 L 110.769 37.200 112.584 37.200 L 114.400 37.200 114.400 30.800 L 114.400 24.400 112.636 24.400 L 110.872 24.400 110.820 30.800 M116.000 25.800 C 116.000 26.570,116.180 27.200,116.400 27.200 C 116.620 27.200,116.800 27.650,116.800 28.200 C 116.800 28.750,116.980 29.200,117.200 29.200 C 117.420 29.200,117.600 29.650,117.600 30.200 C 117.600 30.750,117.769 31.200,117.975 31.200 C 118.327 31.200,119.065 34.608,118.869 35.330 C 118.820 35.511,118.965 35.545,119.190 35.406 C 119.429 35.258,119.600 35.579,119.600 36.176 C 119.600 37.107,119.748 37.200,121.229 37.200 C 122.921 37.200,124.000 36.510,124.000 35.429 C 124.000 35.083,124.180 34.800,124.400 34.800 C 124.620 34.800,124.800 34.350,124.800 33.800 C 124.800 33.250,124.960 32.800,125.155 32.800 C 125.350 32.800,125.631 31.990,125.779 31.000 C 125.928 30.010,126.218 29.200,126.425 29.200 C 126.631 29.200,126.800 28.750,126.800 28.200 C 126.800 27.650,126.980 27.200,127.200 27.200 C 127.420 27.200,127.600 26.750,127.600 26.200 C 127.600 25.650,127.791 25.200,128.024 25.200 C 128.257 25.200,128.336 25.020,128.200 24.800 C 127.440 23.571,124.800 24.809,124.800 26.395 C 124.800 26.864,124.620 27.136,124.400 27.000 C 124.173 26.860,124.000 27.196,124.000 27.776 C 124.000 28.339,123.820 28.800,123.600 28.800 C 123.380 28.800,123.200 29.149,123.200 29.576 C 123.200 30.003,123.020 30.464,122.800 30.600 C 122.580 30.736,122.400 31.197,122.400 31.624 C 122.400 32.051,122.130 32.400,121.800 32.400 C 121.427 32.400,121.200 32.022,121.200 31.400 C 121.200 30.850,121.020 30.400,120.800 30.400 C 120.580 30.400,120.400 29.849,120.400 29.176 C 120.400 28.463,120.233 28.056,120.000 28.200 C 119.766 28.345,119.600 27.930,119.600 27.200 C 119.600 26.470,119.434 26.055,119.200 26.200 C 118.973 26.340,118.800 26.004,118.800 25.424 C 118.800 24.520,118.635 24.400,117.400 24.400 C 116.067 24.400,116.000 24.467,116.000 25.800 M130.700 26.046 C 129.875 26.950,129.200 27.950,129.200 28.268 C 129.200 28.587,129.020 28.736,128.800 28.600 C 128.552 28.447,128.400 29.196,128.400 30.576 C 128.400 31.799,128.580 32.800,128.800 32.800 C 129.020 32.800,129.200 33.173,129.200 33.629 C 129.200 34.084,129.425 34.695,129.700 34.987 C 129.975 35.278,130.648 36.075,131.196 36.758 C 132.287 38.119,138.391 38.747,138.406 37.500 C 138.410 37.167,138.542 37.200,138.800 37.600 C 139.115 38.088,139.189 38.036,139.194 37.324 C 139.197 36.842,139.376 36.338,139.592 36.205 C 140.174 35.845,139.143 34.400,138.304 34.400 C 137.917 34.400,137.600 34.580,137.600 34.800 C 137.600 35.020,136.790 35.200,135.800 35.200 C 134.810 35.200,134.000 35.040,134.000 34.843 C 134.000 34.647,133.550 34.374,133.000 34.236 C 130.273 33.551,131.835 32.400,135.500 32.394 C 137.425 32.391,139.270 32.213,139.600 32.000 C 140.000 31.742,140.033 31.610,139.700 31.606 C 139.425 31.603,139.200 31.345,139.200 31.033 C 139.200 30.722,139.425 30.362,139.700 30.233 C 140.100 30.047,140.100 29.953,139.700 29.767 C 139.425 29.638,139.200 29.098,139.200 28.567 C 139.200 28.035,139.040 27.600,138.843 27.600 C 138.647 27.600,138.365 27.116,138.217 26.525 C 137.517 23.738,133.065 23.454,130.700 26.046 M142.400 30.825 L 142.400 37.251 143.700 37.125 L 145.000 37.000 145.116 33.214 C 145.238 29.246,145.743 28.000,147.229 28.000 C 147.616 28.000,148.025 27.775,148.136 27.500 C 148.293 27.113,148.427 27.125,148.725 27.551 C 149.358 28.455,150.000 27.662,150.000 25.976 L 150.000 24.400 148.176 24.400 C 147.173 24.400,146.430 24.535,146.525 24.700 C 146.620 24.865,146.361 25.346,145.949 25.770 C 145.212 26.528,145.200 26.523,145.200 25.470 C 145.200 24.514,145.051 24.400,143.800 24.400 L 142.400 24.400 142.400 30.825 M153.100 24.957 C 152.715 25.249,152.400 25.693,152.400 25.944 C 152.400 26.195,152.220 26.400,152.000 26.400 C 151.450 26.400,151.495 29.333,152.064 30.581 C 152.320 31.142,152.860 31.600,153.264 31.600 C 153.669 31.600,154.000 31.766,154.000 31.968 C 154.000 32.171,154.575 32.463,155.277 32.617 C 157.116 33.021,157.835 33.822,157.057 34.600 C 156.423 35.234,154.000 35.440,154.000 34.860 C 154.000 34.672,153.505 34.537,152.900 34.560 C 151.890 34.597,151.800 34.731,151.800 36.200 L 151.800 37.800 154.700 37.918 C 156.523 37.991,157.600 37.880,157.600 37.618 C 157.600 37.388,157.977 37.200,158.437 37.200 C 158.938 37.200,159.359 36.879,159.484 36.400 C 159.599 35.960,159.852 35.600,160.047 35.600 C 160.241 35.600,160.400 35.255,160.400 34.833 C 160.400 34.412,160.625 33.976,160.900 33.865 C 161.300 33.704,161.300 33.657,160.900 33.632 C 160.625 33.614,160.400 33.232,160.400 32.782 C 160.400 31.576,158.707 30.094,156.955 29.765 C 153.814 29.176,153.283 27.102,156.300 27.206 C 159.626 27.320,159.600 27.331,159.600 25.800 L 159.600 24.400 156.700 24.413 C 154.925 24.421,153.528 24.632,153.100 24.957 M163.200 30.800 L 163.200 37.200 165.000 37.200 L 166.800 37.200 166.800 30.800 L 166.800 24.400 165.000 24.400 L 163.200 24.400 163.200 30.800 M180.200 24.800 C 180.064 25.020,179.603 25.200,179.176 25.200 C 178.556 25.200,178.400 25.481,178.400 26.600 C 178.400 27.933,178.467 28.000,179.800 28.000 C 180.570 28.000,181.200 27.820,181.200 27.600 C 181.200 27.380,181.920 27.200,182.800 27.200 C 184.714 27.200,185.396 29.567,183.500 29.630 C 180.656 29.724,178.319 30.715,178.630 31.696 C 178.753 32.083,178.662 32.400,178.427 32.400 C 177.536 32.400,177.937 36.201,178.926 37.130 C 179.901 38.046,183.600 38.418,183.600 37.600 C 183.600 37.380,183.924 37.200,184.320 37.200 C 184.716 37.200,185.256 36.984,185.520 36.720 C 185.893 36.347,186.000 36.436,186.000 37.120 C 186.000 38.321,189.006 38.443,189.382 37.256 C 189.692 36.280,189.259 35.200,188.557 35.200 C 188.118 35.200,188.000 34.352,188.000 31.200 C 188.000 28.800,187.840 27.200,187.600 27.200 C 187.380 27.200,187.200 26.930,187.200 26.600 C 187.200 26.270,187.041 26.000,186.847 26.000 C 186.652 26.000,186.399 25.640,186.284 25.200 C 186.053 24.315,180.716 23.964,180.200 24.800 M201.322 25.082 C 201.175 25.477,200.728 26.091,200.328 26.447 C 198.571 28.008,200.660 31.954,203.583 32.596 C 204.222 32.737,204.955 33.105,205.212 33.415 C 206.208 34.614,203.264 35.904,202.126 34.766 C 201.888 34.528,201.267 34.393,200.746 34.466 C 199.507 34.641,199.191 36.604,200.270 37.421 C 201.119 38.064,206.000 38.217,206.000 37.600 C 206.000 37.380,206.324 37.200,206.720 37.200 C 207.706 37.200,208.400 36.423,208.400 35.320 C 208.400 34.814,208.580 34.400,208.800 34.400 C 209.020 34.400,209.200 34.130,209.200 33.800 C 209.200 33.470,209.020 33.200,208.800 33.200 C 208.580 33.200,208.400 32.912,208.400 32.560 C 208.400 31.612,206.060 29.600,204.958 29.600 C 204.431 29.600,204.000 29.420,204.000 29.200 C 204.000 28.980,203.640 28.800,203.200 28.800 C 202.251 28.800,202.126 27.791,203.033 27.443 C 204.135 27.020,206.325 27.180,206.536 27.700 C 206.887 28.565,207.620 27.128,207.504 25.800 L 207.400 24.600 204.494 24.482 C 202.001 24.381,201.551 24.467,201.322 25.082 M210.169 26.100 C 210.319 27.035,210.612 27.971,210.820 28.180 C 211.029 28.389,211.200 28.974,211.200 29.480 C 211.200 29.986,211.380 30.400,211.600 30.400 C 211.820 30.400,212.000 30.760,212.000 31.200 C 212.000 31.640,212.180 32.000,212.400 32.000 C 212.620 32.000,212.800 32.349,212.800 32.776 C 212.800 33.203,212.980 33.664,213.200 33.800 C 213.420 33.936,213.600 34.487,213.600 35.024 C 213.600 35.561,213.780 36.000,214.000 36.000 C 214.220 36.000,214.400 36.270,214.400 36.600 C 214.400 37.043,214.864 37.200,216.175 37.200 L 217.951 37.200 218.221 35.400 C 218.369 34.410,218.650 33.600,218.845 33.600 C 219.040 33.600,219.200 33.240,219.200 32.800 C 219.200 32.360,219.380 32.000,219.600 32.000 C 219.820 32.000,220.000 31.550,220.000 31.000 C 220.000 30.450,220.180 30.000,220.400 30.000 C 220.620 30.000,220.800 29.655,220.800 29.233 C 220.800 28.812,220.964 28.407,221.164 28.333 C 221.364 28.260,221.655 27.345,221.810 26.300 L 222.091 24.400 220.808 24.400 C 219.862 24.400,219.470 24.610,219.316 25.200 C 219.201 25.640,218.968 26.000,218.799 26.000 C 218.629 26.000,218.369 26.810,218.221 27.800 C 218.072 28.790,217.782 29.600,217.575 29.600 C 217.369 29.600,217.200 30.050,217.200 30.600 C 217.200 31.150,217.020 31.600,216.800 31.600 C 216.580 31.600,216.400 31.960,216.400 32.400 C 216.400 32.840,216.220 33.200,216.000 33.200 C 215.780 33.200,215.600 32.840,215.600 32.400 C 215.600 31.960,215.420 31.600,215.200 31.600 C 214.980 31.600,214.800 31.150,214.800 30.600 C 214.800 30.050,214.637 29.600,214.438 29.600 C 214.238 29.600,213.947 28.666,213.789 27.523 C 213.451 25.060,212.899 24.400,211.177 24.400 L 209.898 24.400 210.169 26.100 M226.400 24.800 C 226.400 25.020,226.175 25.206,225.900 25.213 C 225.164 25.233,223.600 26.641,223.600 27.284 C 223.600 27.590,223.398 28.042,223.151 28.289 C 222.440 29.000,222.560 34.400,223.287 34.400 C 223.459 34.400,223.600 34.639,223.600 34.930 C 223.600 35.666,225.308 37.200,226.126 37.200 C 226.497 37.200,226.800 37.380,226.800 37.600 C 226.800 38.178,231.840 38.096,232.905 37.500 C 233.397 37.225,233.862 36.968,233.938 36.929 C 234.014 36.889,233.955 36.304,233.806 35.629 C 233.545 34.440,231.600 33.709,231.600 34.800 C 231.600 35.020,230.790 35.200,229.800 35.200 C 228.810 35.200,228.000 35.020,228.000 34.800 C 228.000 34.580,227.640 34.400,227.200 34.400 C 226.760 34.400,226.400 34.235,226.400 34.033 C 226.400 33.831,226.291 33.381,226.157 33.033 C 225.947 32.484,226.400 32.400,229.557 32.400 C 233.143 32.400,233.200 32.385,233.200 31.433 C 233.200 30.902,233.425 30.391,233.700 30.299 C 234.087 30.169,234.096 29.913,233.741 29.165 C 233.488 28.634,232.985 27.525,232.622 26.700 C 232.259 25.875,231.701 25.200,231.381 25.200 C 231.062 25.200,230.800 25.020,230.800 24.800 C 230.800 24.580,229.810 24.400,228.600 24.400 C 227.390 24.400,226.400 24.580,226.400 24.800 M236.788 25.000 C 236.781 25.330,236.769 28.165,236.761 31.300 L 236.747 37.000 238.173 37.124 L 239.600 37.248 239.600 32.757 C 239.600 30.288,239.707 28.374,239.838 28.505 C 239.969 28.636,240.683 28.403,241.424 27.987 C 242.251 27.522,242.866 27.384,243.018 27.628 C 243.154 27.849,243.612 27.584,244.047 27.032 C 245.121 25.665,244.379 24.400,242.504 24.400 C 241.787 24.400,241.200 24.537,241.200 24.704 C 241.200 24.871,240.839 25.233,240.399 25.508 C 239.958 25.783,239.619 25.872,239.646 25.704 C 239.807 24.700,239.474 24.400,238.200 24.400 C 237.228 24.400,236.796 24.583,236.788 25.000 M254.400 24.800 C 254.400 25.020,253.860 25.200,253.200 25.200 C 252.106 25.200,252.000 25.318,252.000 26.538 C 252.000 27.831,252.054 27.877,253.586 27.877 C 254.458 27.877,255.077 27.725,254.962 27.538 C 254.847 27.352,255.464 27.200,256.334 27.200 C 257.406 27.200,257.992 27.403,258.157 27.833 C 258.702 29.253,258.409 29.520,256.000 29.800 C 254.680 29.953,253.600 30.251,253.600 30.463 C 253.600 30.674,253.420 30.736,253.200 30.600 C 252.980 30.464,252.800 30.633,252.800 30.976 C 252.800 31.319,252.620 31.600,252.400 31.600 C 252.180 31.600,252.000 31.960,252.000 32.400 C 252.000 32.840,251.820 33.200,251.600 33.200 C 250.723 33.200,251.277 35.127,252.554 36.522 C 253.907 37.999,256.896 38.690,257.267 37.612 C 257.472 37.015,259.418 36.908,259.300 37.500 C 259.158 38.211,262.306 38.151,263.029 37.429 C 263.777 36.680,263.751 36.424,262.840 35.635 C 262.205 35.084,262.057 34.295,261.940 30.821 C 261.844 27.957,261.645 26.614,261.300 26.500 C 261.025 26.408,260.800 26.155,260.800 25.938 C 260.800 24.904,259.564 24.400,257.029 24.400 C 255.543 24.400,254.400 24.574,254.400 24.800 M267.824 24.924 C 266.476 25.751,265.200 27.140,265.200 27.782 C 265.200 28.122,265.020 28.400,264.800 28.400 C 264.571 28.400,264.400 29.608,264.400 31.224 C 264.400 33.004,264.548 33.956,264.800 33.800 C 265.020 33.664,265.200 33.923,265.200 34.376 C 265.200 34.829,265.380 35.200,265.600 35.200 C 265.820 35.200,266.000 35.548,266.000 35.973 C 266.000 37.179,271.939 37.982,272.324 36.829 C 272.605 35.986,273.200 36.420,273.200 37.467 C 273.200 38.053,273.091 38.424,272.957 38.291 C 272.824 38.157,272.340 38.397,271.882 38.824 C 271.003 39.643,268.000 39.933,268.000 39.200 C 268.000 38.598,266.423 38.719,265.771 39.371 C 264.891 40.252,265.043 41.600,266.024 41.600 C 266.477 41.600,266.736 41.780,266.600 42.000 C 266.443 42.253,267.477 42.400,269.420 42.400 L 272.488 42.400 274.244 40.619 C 275.210 39.639,276.000 38.505,276.000 38.099 C 276.000 37.693,276.216 37.144,276.480 36.880 C 276.853 36.507,276.853 36.400,276.480 36.400 C 276.216 36.400,276.000 35.939,276.000 35.376 C 276.000 34.813,276.135 34.437,276.300 34.539 C 276.465 34.642,276.510 32.762,276.400 30.362 C 276.275 27.628,276.349 25.948,276.600 25.864 C 276.836 25.785,276.774 25.457,276.451 25.065 C 275.828 24.310,273.348 24.156,273.114 24.857 C 273.000 25.201,272.748 25.201,272.107 24.857 C 271.017 24.274,268.827 24.308,267.824 24.924 M306.000 24.772 C 306.000 24.977,305.595 25.206,305.100 25.282 C 304.605 25.357,304.245 25.640,304.300 25.909 C 304.355 26.179,304.220 26.400,304.000 26.400 C 303.780 26.400,303.600 26.745,303.600 27.167 C 303.600 27.588,303.390 28.003,303.134 28.089 C 302.225 28.392,302.576 34.312,303.554 35.160 C 304.019 35.564,304.400 36.086,304.400 36.320 C 304.400 36.554,304.760 36.860,305.200 37.000 C 305.640 37.140,306.000 37.422,306.000 37.627 C 306.000 37.832,307.260 38.000,308.800 38.000 C 310.400 38.000,311.600 37.829,311.600 37.600 C 311.600 37.380,311.941 37.200,312.357 37.200 C 313.054 37.200,313.814 36.211,313.664 35.500 C 313.629 35.335,313.780 35.200,314.000 35.200 C 314.220 35.200,314.400 34.660,314.400 34.000 C 314.400 33.340,314.580 32.800,314.800 32.800 C 315.020 32.800,315.200 31.990,315.200 31.000 C 315.200 30.010,315.020 29.200,314.800 29.200 C 314.580 29.200,314.400 28.750,314.400 28.200 C 314.400 27.650,314.249 27.200,314.064 27.200 C 313.880 27.200,313.523 26.750,313.273 26.200 C 313.022 25.650,312.543 25.200,312.209 25.200 C 311.874 25.200,311.600 25.020,311.600 24.800 C 311.600 24.571,310.400 24.400,308.800 24.400 C 307.260 24.400,306.000 24.567,306.000 24.772 M334.838 24.955 C 334.526 25.331,334.413 27.359,334.489 31.255 L 334.600 37.000 336.100 37.124 L 337.600 37.248 337.600 30.824 L 337.600 24.400 336.449 24.400 C 335.816 24.400,335.091 24.650,334.838 24.955 M341.600 30.800 L 341.600 37.200 343.400 37.200 L 345.200 37.200 345.200 32.808 C 345.200 28.456,345.209 28.413,346.200 28.164 C 346.750 28.026,347.200 27.753,347.200 27.557 C 347.200 26.998,348.396 27.139,349.029 27.771 C 349.455 28.198,349.600 29.467,349.600 32.771 L 349.600 37.200 351.000 37.200 L 352.400 37.200 352.400 31.800 C 352.400 28.467,352.247 26.400,352.000 26.400 C 351.780 26.400,351.600 26.207,351.600 25.971 C 351.600 24.554,346.442 23.596,345.833 24.900 C 345.647 25.300,345.553 25.300,345.367 24.900 C 345.232 24.611,344.389 24.400,343.367 24.400 L 341.600 24.400 341.600 30.800 M358.400 24.800 C 358.400 25.020,358.040 25.200,357.600 25.200 C 357.160 25.200,356.800 25.388,356.800 25.617 C 356.800 25.846,356.440 26.420,356.000 26.892 C 355.560 27.364,355.200 28.156,355.200 28.652 C 355.200 29.147,355.026 29.660,354.813 29.792 C 354.344 30.082,354.391 32.800,354.865 32.800 C 355.049 32.800,355.200 33.160,355.200 33.600 C 355.200 34.040,355.380 34.400,355.600 34.400 C 355.820 34.400,356.000 34.639,356.000 34.930 C 356.000 36.632,359.692 37.864,362.300 37.033 C 363.373 36.691,363.599 38.059,362.629 39.029 C 361.954 39.703,358.000 39.826,358.000 39.172 C 358.000 38.937,357.595 38.802,357.100 38.872 C 355.967 39.033,355.494 41.600,356.598 41.600 C 356.955 41.600,357.136 41.780,357.000 42.000 C 356.843 42.254,357.929 42.400,359.976 42.400 C 361.859 42.400,363.200 42.234,363.200 42.000 C 363.200 41.780,363.483 41.600,363.829 41.600 C 364.709 41.600,365.512 40.699,365.835 39.348 C 365.987 38.717,366.270 37.996,366.466 37.746 C 366.661 37.497,366.771 34.437,366.710 30.946 L 366.600 24.600 365.640 24.464 C 365.112 24.390,364.228 24.570,363.675 24.864 C 362.881 25.287,362.634 25.295,362.501 24.900 C 362.299 24.298,358.400 24.203,358.400 24.800 M372.800 24.800 C 372.800 25.020,372.517 25.200,372.171 25.200 C 371.264 25.200,370.246 26.353,370.088 27.559 C 370.012 28.132,369.782 28.660,369.575 28.733 C 369.069 28.913,369.093 33.200,369.600 33.200 C 369.820 33.200,370.000 33.650,370.000 34.200 C 370.000 34.750,370.191 35.200,370.424 35.200 C 370.657 35.200,370.745 35.365,370.620 35.568 C 370.330 36.037,371.476 37.200,372.229 37.200 C 372.543 37.200,372.800 37.380,372.800 37.600 C 372.800 38.255,378.756 38.101,379.429 37.429 C 380.323 36.535,380.178 34.400,379.224 34.400 C 378.797 34.400,378.336 34.580,378.200 34.800 C 377.738 35.548,374.464 35.264,373.600 34.400 C 372.018 32.818,372.508 32.441,376.300 32.316 L 379.800 32.200 379.921 30.100 C 379.987 28.945,379.886 28.000,379.696 28.000 C 379.505 28.000,379.102 27.370,378.800 26.600 C 378.498 25.830,378.014 25.200,377.725 25.200 C 377.436 25.200,377.200 25.020,377.200 24.800 C 377.200 24.580,376.210 24.400,375.000 24.400 C 373.790 24.400,372.800 24.580,372.800 24.800 M382.820 30.800 L 382.769 37.200 384.357 37.200 C 386.307 37.200,386.497 36.760,386.392 32.478 C 386.296 28.532,386.320 28.303,386.800 28.600 C 387.020 28.736,387.200 28.657,387.200 28.424 C 387.200 28.191,387.560 28.000,388.000 28.000 C 388.440 28.000,388.800 27.820,388.800 27.600 C 388.800 27.013,390.396 27.111,390.423 27.700 C 390.435 27.975,390.426 30.225,390.402 32.700 L 390.358 37.200 392.203 37.200 L 394.049 37.200 393.924 31.500 C 393.834 27.356,393.667 25.800,393.313 25.800 C 393.045 25.800,392.458 25.485,392.008 25.100 C 391.202 24.409,388.003 24.090,387.997 24.700 C 387.995 24.865,387.545 25.208,386.997 25.462 C 386.026 25.913,385.788 25.740,385.953 24.700 C 385.979 24.535,385.296 24.400,384.436 24.400 L 382.872 24.400 382.820 30.800 M29.189 29.207 C 28.848 29.417,28.839 29.577,29.157 29.774 C 29.401 29.924,29.600 30.433,29.600 30.904 C 29.600 31.570,29.493 31.653,29.120 31.280 C 28.856 31.016,28.316 30.800,27.920 30.800 C 27.524 30.800,27.200 30.620,27.200 30.400 C 27.200 30.180,27.380 30.000,27.600 30.000 C 27.820 30.000,28.000 29.640,28.000 29.200 C 28.000 28.760,28.159 28.400,28.353 28.400 C 28.548 28.400,28.843 27.995,29.010 27.500 C 29.297 26.647,29.322 26.660,29.488 27.757 C 29.586 28.400,29.454 29.043,29.189 29.207 M135.600 27.800 C 135.600 28.130,135.780 28.400,136.000 28.400 C 136.220 28.400,136.400 28.670,136.400 29.000 C 136.400 29.461,135.889 29.600,134.200 29.600 C 131.770 29.600,131.070 28.571,132.900 27.688 C 134.237 27.043,135.600 27.100,135.600 27.800 M229.829 27.771 C 231.062 29.005,230.532 29.600,228.200 29.600 C 225.816 29.600,225.636 29.419,226.700 28.087 C 227.501 27.084,228.991 26.934,229.829 27.771 M272.146 28.029 C 273.053 28.743,273.200 29.160,273.200 31.029 C 273.200 32.976,273.046 33.287,272.145 33.166 C 272.004 33.147,271.741 33.372,271.559 33.666 C 271.171 34.294,269.218 34.434,268.500 33.885 C 267.572 33.175,267.836 28.000,268.800 28.000 C 269.240 28.000,269.600 27.820,269.600 27.600 C 269.600 26.917,271.041 27.160,272.146 28.029 M310.800 28.000 C 311.958 29.158,311.955 33.518,310.795 34.511 C 308.490 36.485,306.000 34.777,306.000 31.220 C 306.000 27.558,308.608 25.808,310.800 28.000 M362.000 27.600 C 362.000 27.820,362.270 28.000,362.600 28.000 C 363.634 28.000,363.449 33.210,362.404 33.483 C 361.967 33.597,361.708 33.850,361.828 34.045 C 361.949 34.240,361.497 34.400,360.824 34.400 C 360.151 34.400,359.600 34.220,359.600 34.000 C 359.600 33.780,359.240 33.600,358.800 33.600 C 358.083 33.600,358.000 33.333,358.000 31.027 C 358.000 28.805,358.109 28.419,358.800 28.200 C 359.240 28.060,359.600 27.778,359.600 27.573 C 359.600 27.368,360.140 27.200,360.800 27.200 C 361.460 27.200,362.000 27.380,362.000 27.600 M376.400 28.167 C 376.400 28.698,376.625 29.224,376.900 29.335 C 377.175 29.446,376.365 29.551,375.100 29.568 C 372.632 29.602,372.004 28.892,373.500 27.757 C 374.741 26.814,376.400 27.049,376.400 28.167 M49.200 29.000 C 49.200 29.330,49.020 29.600,48.800 29.600 C 48.580 29.600,48.400 29.779,48.400 29.997 C 48.400 30.358,47.388 31.689,46.100 33.025 C 45.825 33.310,45.600 33.736,45.600 33.971 C 45.600 34.207,45.306 34.400,44.947 34.400 C 44.588 34.400,43.957 34.789,43.544 35.264 C 43.132 35.739,42.681 36.015,42.543 35.876 C 42.404 35.737,43.125 34.836,44.145 33.872 C 45.165 32.909,46.000 31.863,46.000 31.548 C 46.000 31.234,46.360 30.717,46.800 30.400 C 47.240 30.083,47.600 29.503,47.600 29.112 C 47.600 28.667,47.900 28.400,48.400 28.400 C 48.844 28.400,49.200 28.667,49.200 29.000 M184.400 33.229 C 184.400 34.223,183.508 35.200,182.600 35.200 C 181.100 35.200,180.153 33.028,181.500 32.676 C 183.349 32.193,184.400 32.393,184.400 33.229 M258.400 33.400 C 258.400 34.133,258.187 34.400,257.600 34.400 C 257.160 34.400,256.800 34.580,256.800 34.800 C 256.800 35.382,256.032 35.290,255.371 34.629 C 254.097 33.354,254.779 32.488,257.100 32.432 C 258.228 32.404,258.400 32.532,258.400 33.400 M30.431 34.200 C 30.778 34.860,30.992 35.535,30.907 35.700 C 30.673 36.154,26.484 36.059,26.196 35.593 C 26.058 35.370,25.764 35.299,25.543 35.435 C 25.274 35.602,25.273 35.438,25.541 34.942 C 25.761 34.534,26.045 33.870,26.171 33.466 C 26.578 32.166,29.639 32.694,30.431 34.200 M42.558 36.331 C 42.670 36.514,42.051 36.977,41.181 37.360 C 40.312 37.744,39.600 38.225,39.600 38.429 C 39.600 38.633,39.330 38.800,39.000 38.800 C 38.670 38.800,38.400 38.958,38.400 39.151 C 38.400 39.345,37.860 39.727,37.200 40.000 C 36.540 40.273,36.000 40.655,36.000 40.849 C 36.000 41.042,35.820 41.200,35.600 41.200 C 35.380 41.200,35.200 40.840,35.200 40.400 C 35.200 39.956,35.467 39.600,35.800 39.600 C 36.130 39.600,36.400 39.420,36.400 39.200 C 36.400 38.980,36.850 38.800,37.400 38.800 C 37.950 38.800,38.400 38.620,38.400 38.400 C 38.400 38.180,38.655 38.000,38.967 38.000 C 39.278 38.000,39.593 37.865,39.667 37.700 C 40.062 36.811,42.222 35.788,42.558 36.331 M24.200 40.000 C 24.336 40.221,26.130 40.400,28.200 40.400 C 30.270 40.400,32.064 40.221,32.200 40.000 C 32.574 39.395,33.200 39.521,33.200 40.200 C 33.200 40.530,33.380 40.800,33.600 40.800 C 33.820 40.800,34.000 40.935,34.000 41.100 C 34.000 41.553,24.753 41.369,24.457 40.910 C 24.316 40.692,23.885 40.562,23.500 40.621 C 23.113 40.681,22.800 40.477,22.800 40.165 C 22.800 39.519,23.828 39.398,24.200 40.000 M18.300 49.078 C 17.777 50.040,17.993 53.200,18.582 53.200 C 19.024 53.200,19.200 52.794,19.200 51.776 C 19.200 50.856,19.353 50.447,19.634 50.621 C 19.910 50.791,20.019 50.547,19.934 49.948 C 19.804 49.038,18.654 48.425,18.300 49.078 M36.278 50.479 C 36.150 51.427,36.214 52.260,36.422 52.333 C 36.630 52.407,36.800 52.812,36.800 53.233 C 36.800 53.726,37.078 54.000,37.576 54.000 C 38.575 54.000,39.066 53.214,38.351 52.761 C 37.919 52.488,37.913 52.411,38.323 52.406 C 39.464 52.393,38.729 49.015,37.556 48.879 C 36.602 48.768,36.491 48.907,36.278 50.479 M23.820 49.968 C 23.695 50.170,23.864 50.607,24.196 50.939 C 24.959 51.702,24.960 52.000,24.200 52.000 C 23.556 52.000,23.470 52.473,23.852 53.900 C 24.151 55.015,24.805 55.068,25.084 54.000 C 25.199 53.560,25.519 53.200,25.796 53.200 C 26.120 53.200,26.311 52.559,26.335 51.400 C 26.370 49.627,24.640 48.642,23.820 49.968 M29.600 50.157 C 29.600 50.464,29.849 50.810,30.154 50.927 C 30.559 51.083,30.653 51.632,30.502 52.970 C 30.279 54.954,31.299 55.558,32.629 54.229 C 33.281 53.577,33.402 52.000,32.800 52.000 C 32.580 52.000,32.400 51.460,32.400 50.800 C 32.400 49.695,32.289 49.600,31.000 49.600 C 30.070 49.600,29.600 49.787,29.600 50.157 " stroke="none" fill="#ffffff" fill-rule="evenodd"></path><path id="path3" d="M23.800 3.600 C 23.664 3.820,23.923 4.000,24.376 4.000 C 24.829 4.000,25.200 3.820,25.200 3.600 C 25.200 3.380,24.941 3.200,24.624 3.200 C 24.307 3.200,23.936 3.380,23.800 3.600 M27.600 8.000 C 27.600 8.220,27.960 8.400,28.400 8.400 C 28.840 8.400,29.200 8.220,29.200 8.000 C 29.200 7.780,28.840 7.600,28.400 7.600 C 27.960 7.600,27.600 7.780,27.600 8.000 M24.000 9.600 C 24.000 9.820,24.259 10.000,24.576 10.000 C 24.893 10.000,25.264 9.820,25.400 9.600 C 25.536 9.380,25.277 9.200,24.824 9.200 C 24.371 9.200,24.000 9.380,24.000 9.600 M27.000 9.600 C 27.136 9.820,27.507 10.000,27.824 10.000 C 28.141 10.000,28.400 9.820,28.400 9.600 C 28.400 9.380,28.029 9.200,27.576 9.200 C 27.123 9.200,26.864 9.380,27.000 9.600 M50.480 10.480 C 50.216 10.744,50.000 11.248,50.000 11.600 C 50.000 11.952,49.784 12.456,49.520 12.720 C 49.155 13.085,49.153 13.200,49.512 13.200 C 49.772 13.200,50.103 12.705,50.248 12.100 C 50.392 11.495,50.688 10.775,50.904 10.500 C 51.406 9.863,51.111 9.849,50.480 10.480 M7.037 13.300 L 6.302 14.600 7.351 13.517 C 8.434 12.399,8.628 12.000,8.086 12.000 C 7.914 12.000,7.442 12.585,7.037 13.300 M21.429 13.009 C 21.005 13.329,20.735 13.668,20.829 13.761 C 20.923 13.855,21.425 13.587,21.944 13.166 C 23.038 12.279,22.579 12.139,21.429 13.009 M49.200 14.176 C 49.200 14.493,49.380 14.864,49.600 15.000 C 49.820 15.136,50.000 14.877,50.000 14.424 C 50.000 13.971,49.820 13.600,49.600 13.600 C 49.380 13.600,49.200 13.859,49.200 14.176 M17.412 15.317 C 17.241 15.712,17.213 16.147,17.351 16.284 C 17.757 16.690,18.084 16.120,17.897 15.331 C 17.732 14.633,17.710 14.632,17.412 15.317 M9.433 18.257 C 9.052 19.250,9.472 19.386,9.982 18.434 C 10.227 17.975,10.261 17.600,10.057 17.600 C 9.853 17.600,9.572 17.896,9.433 18.257 M3.488 20.533 C 3.010 21.749,3.124 22.773,3.639 21.887 C 3.867 21.496,3.991 20.866,3.915 20.487 C 3.788 19.860,3.751 19.864,3.488 20.533 M90.300 20.232 C 90.135 20.398,90.016 23.428,90.036 26.967 C 90.062 31.679,90.173 33.052,90.447 32.101 C 90.882 30.595,90.748 19.783,90.300 20.232 M179.659 20.529 C 179.307 20.953,179.457 21.024,180.413 20.883 C 181.070 20.787,181.876 20.931,182.204 21.203 C 182.912 21.791,183.012 21.172,182.320 20.480 C 181.682 19.842,180.207 19.869,179.659 20.529 M184.400 20.355 C 184.400 20.690,186.842 21.247,187.140 20.979 C 187.217 20.910,187.161 20.661,187.016 20.427 C 186.699 19.913,184.400 19.850,184.400 20.355 M305.400 20.400 C 305.253 20.639,305.737 20.800,306.600 20.800 C 307.463 20.800,307.947 20.639,307.800 20.400 C 307.664 20.180,307.124 20.000,306.600 20.000 C 306.076 20.000,305.536 20.180,305.400 20.400 M309.826 20.358 C 309.704 20.555,310.311 20.784,311.175 20.866 C 312.409 20.984,312.655 20.907,312.324 20.508 C 311.840 19.925,310.156 19.824,309.826 20.358 M337.600 21.800 C 337.600 22.930,337.755 23.551,338.000 23.400 C 338.220 23.264,338.400 22.544,338.400 21.800 C 338.400 21.056,338.220 20.336,338.000 20.200 C 337.755 20.049,337.600 20.670,337.600 21.800 M18.034 21.768 C 18.478 22.521,19.124 23.371,19.469 23.658 C 19.815 23.944,19.625 23.483,19.048 22.633 C 18.472 21.784,18.000 20.933,18.000 20.744 C 18.000 20.555,17.826 20.400,17.613 20.400 C 17.401 20.400,17.590 21.016,18.034 21.768 M20.000 21.053 C 20.000 21.314,21.599 22.800,21.880 22.800 C 21.966 22.800,21.714 22.356,21.319 21.813 C 20.635 20.873,20.000 20.507,20.000 21.053 M53.171 21.100 C 52.998 22.891,53.057 24.400,53.300 24.400 C 53.465 24.400,53.600 23.590,53.600 22.600 C 53.600 21.127,53.277 19.999,53.171 21.100 M29.600 23.200 C 29.600 23.420,29.870 23.600,30.200 23.600 C 30.573 23.600,30.800 23.978,30.800 24.600 C 30.800 25.150,30.980 25.600,31.200 25.600 C 31.760 25.600,31.700 23.860,31.120 23.280 C 30.538 22.698,29.600 22.648,29.600 23.200 M286.819 23.377 C 286.547 23.705,286.417 24.204,286.531 24.487 C 286.666 24.823,286.748 24.770,286.768 24.333 C 286.786 23.967,287.025 23.586,287.300 23.488 C 287.575 23.390,287.691 23.191,287.557 23.045 C 287.423 22.900,287.091 23.049,286.819 23.377 M10.000 24.000 C 10.000 24.220,10.900 24.400,12.000 24.400 C 13.100 24.400,14.000 24.220,14.000 24.000 C 14.000 23.780,13.100 23.600,12.000 23.600 C 10.900 23.600,10.000 23.780,10.000 24.000 M96.400 30.957 C 96.400 38.122,96.358 38.000,98.833 38.000 C 99.475 38.000,100.000 37.820,100.000 37.600 C 100.000 37.380,99.370 37.200,98.600 37.200 L 97.200 37.200 97.200 30.800 C 97.200 26.800,97.050 24.400,96.800 24.400 C 96.550 24.400,96.400 26.852,96.400 30.957 M115.569 24.500 C 115.316 25.327,115.344 26.042,115.636 26.222 C 115.836 26.346,116.000 25.987,116.000 25.424 C 116.000 24.609,115.720 24.008,115.569 24.500 M145.212 25.380 C 145.203 26.241,145.320 26.440,145.641 26.119 C 145.958 25.802,145.961 25.468,145.654 24.939 C 145.277 24.291,145.223 24.346,145.212 25.380 M236.177 24.917 C 236.068 25.201,236.028 28.216,236.089 31.617 L 236.200 37.800 237.900 37.923 C 238.846 37.991,239.600 37.869,239.600 37.647 C 239.600 37.428,238.957 37.192,238.171 37.124 L 236.741 37.000 236.753 30.700 C 236.764 24.780,236.654 23.673,236.177 24.917 M240.087 25.209 C 239.619 25.959,239.641 25.981,240.391 25.513 C 240.836 25.235,241.200 24.871,241.200 24.704 C 241.200 24.126,240.591 24.403,240.087 25.209 M337.606 30.742 L 337.600 37.284 336.049 37.136 C 334.919 37.028,334.550 37.126,334.691 37.494 C 334.894 38.023,336.678 38.175,337.767 37.757 C 338.504 37.475,338.712 25.901,338.000 24.800 C 337.741 24.399,337.610 26.370,337.606 30.742 M362.400 24.825 C 362.400 25.280,363.475 25.327,363.749 24.883 C 363.856 24.709,363.597 24.540,363.172 24.508 C 362.748 24.476,362.400 24.619,362.400 24.825 M385.876 24.676 C 385.753 24.875,385.798 25.274,385.976 25.562 C 386.154 25.850,386.401 25.923,386.524 25.724 C 386.647 25.525,386.602 25.126,386.424 24.838 C 386.246 24.550,385.999 24.477,385.876 24.676 M391.622 24.700 C 391.634 24.865,392.219 25.446,392.922 25.992 C 393.904 26.754,394.061 26.801,393.600 26.194 C 392.353 24.550,391.567 23.957,391.622 24.700 M14.000 26.376 C 14.000 27.049,14.180 27.600,14.400 27.600 C 14.620 27.600,14.800 27.161,14.800 26.624 C 14.800 26.087,14.620 25.536,14.400 25.400 C 14.167 25.256,14.000 25.663,14.000 26.376 M127.600 25.800 C 127.600 26.130,127.780 26.400,128.000 26.400 C 128.220 26.400,128.400 26.130,128.400 25.800 C 128.400 25.470,128.220 25.200,128.000 25.200 C 127.780 25.200,127.600 25.470,127.600 25.800 M130.001 26.198 C 129.486 26.748,129.152 27.285,129.260 27.394 C 129.368 27.502,129.854 27.052,130.340 26.395 C 131.417 24.939,131.266 24.852,130.001 26.198 M200.060 25.842 C 199.331 26.666,199.800 27.057,200.581 26.276 C 200.921 25.936,201.200 25.554,201.200 25.429 C 201.200 25.009,200.606 25.224,200.060 25.842 M207.600 25.967 C 207.600 26.389,207.476 27.064,207.325 27.467 C 207.083 28.112,207.131 28.134,207.725 27.651 C 208.451 27.060,208.660 25.200,208.000 25.200 C 207.780 25.200,207.600 25.545,207.600 25.967 M25.000 26.000 C 24.855 26.235,25.279 26.400,26.025 26.400 C 27.177 26.400,27.247 26.466,26.756 27.100 C 26.324 27.658,26.398 27.643,27.116 27.029 C 27.797 26.449,27.894 26.179,27.509 25.936 C 26.796 25.483,25.296 25.521,25.000 26.000 M356.119 26.090 C 355.231 27.238,355.143 27.738,355.981 26.874 C 356.476 26.364,356.798 25.865,356.697 25.764 C 356.596 25.663,356.336 25.810,356.119 26.090 M30.800 27.000 C 30.800 27.550,30.980 28.000,31.200 28.000 C 31.420 28.000,31.600 27.550,31.600 27.000 C 31.600 26.450,31.420 26.000,31.200 26.000 C 30.980 26.000,30.800 26.450,30.800 27.000 M276.189 31.202 C 276.183 34.061,276.302 36.400,276.453 36.400 C 276.604 36.400,276.749 34.060,276.775 31.200 C 276.800 28.340,276.681 26.001,276.510 26.002 C 276.340 26.003,276.195 28.343,276.189 31.202 M285.688 27.200 C 285.669 27.860,285.821 28.400,286.027 28.400 C 286.232 28.400,286.400 27.860,286.400 27.200 C 286.400 26.540,286.247 26.000,286.061 26.000 C 285.874 26.000,285.706 26.540,285.688 27.200 M28.916 27.600 C 28.801 28.040,28.548 28.400,28.353 28.400 C 27.624 28.400,28.033 29.032,28.800 29.090 C 29.432 29.138,29.600 28.904,29.600 27.975 C 29.600 26.627,29.224 26.421,28.916 27.600 M107.200 32.000 L 107.200 37.200 105.800 37.200 C 105.030 37.200,104.400 37.390,104.400 37.623 C 104.400 37.873,105.094 37.996,106.100 37.923 L 107.800 37.800 107.911 32.300 C 107.984 28.727,107.878 26.800,107.611 26.800 C 107.351 26.800,107.200 28.705,107.200 32.000 M151.293 28.000 C 151.293 28.770,151.375 29.085,151.476 28.700 C 151.576 28.315,151.576 27.685,151.476 27.300 C 151.375 26.915,151.293 27.230,151.293 28.000 M154.400 27.829 C 154.400 28.605,155.536 29.797,155.916 29.418 C 156.068 29.265,155.887 28.969,155.513 28.759 C 155.137 28.549,154.934 28.116,155.059 27.789 C 155.184 27.465,155.086 27.200,154.843 27.200 C 154.599 27.200,154.400 27.483,154.400 27.829 M347.200 27.556 C 347.200 27.751,347.515 27.886,347.900 27.856 C 348.523 27.806,348.613 28.303,348.714 32.376 C 348.777 34.908,349.022 37.185,349.263 37.476 C 349.770 38.086,352.400 38.191,352.400 37.600 C 352.400 37.380,351.770 37.200,351.000 37.200 L 349.600 37.200 349.600 32.771 C 349.600 29.467,349.455 28.198,349.029 27.771 C 348.396 27.139,347.200 26.998,347.200 27.556 M388.800 27.667 C 388.800 27.923,388.914 28.020,389.053 27.881 C 389.192 27.742,389.637 27.806,390.044 28.023 C 390.632 28.338,390.735 28.295,390.548 27.809 C 390.276 27.099,388.800 26.978,388.800 27.667 M202.400 28.200 C 202.400 28.530,202.580 28.800,202.800 28.800 C 203.020 28.800,203.200 28.530,203.200 28.200 C 203.200 27.870,203.020 27.600,202.800 27.600 C 202.580 27.600,202.400 27.870,202.400 28.200 M8.400 28.776 C 8.400 29.229,8.580 29.600,8.800 29.600 C 9.020 29.600,9.200 29.341,9.200 29.024 C 9.200 28.707,9.020 28.336,8.800 28.200 C 8.580 28.064,8.400 28.323,8.400 28.776 M145.878 28.714 C 145.401 29.241,145.202 30.414,145.116 33.214 L 145.000 37.000 143.700 37.125 C 141.873 37.302,142.075 38.000,143.953 38.000 C 145.855 38.000,145.987 37.650,145.995 32.580 C 145.998 30.305,146.178 28.782,146.480 28.480 C 146.744 28.216,146.862 28.000,146.742 28.000 C 146.622 28.000,146.233 28.321,145.878 28.714 M214.006 28.700 C 214.003 29.195,214.180 29.600,214.400 29.600 C 214.901 29.600,214.901 29.176,214.400 28.400 C 214.086 27.915,214.011 27.972,214.006 28.700 M314.400 28.600 C 314.400 28.930,314.580 29.200,314.800 29.200 C 315.020 29.200,315.200 28.930,315.200 28.600 C 315.200 28.270,315.020 28.000,314.800 28.000 C 314.580 28.000,314.400 28.270,314.400 28.600 M354.846 28.267 C 354.821 28.524,354.684 29.064,354.541 29.467 C 354.340 30.036,354.394 30.097,354.779 29.742 C 355.052 29.491,355.189 28.951,355.084 28.542 C 354.979 28.134,354.872 28.010,354.846 28.267 M14.822 28.600 C 14.827 29.129,15.942 30.591,16.169 30.365 C 16.266 30.268,16.002 29.741,15.582 29.194 C 15.161 28.647,14.820 28.380,14.822 28.600 M34.800 28.800 C 35.594 29.313,42.683 29.313,43.000 28.800 C 43.159 28.542,41.639 28.402,38.724 28.406 C 35.655 28.410,34.393 28.537,34.800 28.800 M47.600 28.757 C 47.600 28.954,47.885 29.224,48.233 29.357 C 49.127 29.700,49.200 29.673,49.200 29.000 C 49.200 28.667,48.844 28.400,48.400 28.400 C 47.960 28.400,47.600 28.561,47.600 28.757 M358.000 29.224 C 358.000 29.677,358.180 29.936,358.400 29.800 C 358.620 29.664,358.800 29.293,358.800 28.976 C 358.800 28.659,358.620 28.400,358.400 28.400 C 358.180 28.400,358.000 28.771,358.000 29.224 M30.800 29.400 C 30.800 29.730,30.980 30.000,31.200 30.000 C 31.420 30.000,31.600 29.730,31.600 29.400 C 31.600 29.070,31.420 28.800,31.200 28.800 C 30.980 28.800,30.800 29.070,30.800 29.400 M191.337 31.800 C 191.339 33.560,191.409 34.230,191.493 33.289 C 191.578 32.349,191.577 30.909,191.491 30.089 C 191.405 29.270,191.336 30.040,191.337 31.800 M352.548 32.800 C 352.548 35.110,352.614 36.055,352.695 34.900 C 352.776 33.745,352.776 31.855,352.695 30.700 C 352.614 29.545,352.548 30.490,352.548 32.800 M300.000 33.400 C 300.000 35.957,300.139 37.161,300.415 36.991 C 300.916 36.681,300.855 30.081,300.349 29.768 C 300.157 29.650,300.000 31.284,300.000 33.400 M11.019 31.237 C 11.371 31.918,11.734 32.400,11.825 32.308 C 12.069 32.065,11.055 30.007,10.690 30.003 C 10.519 30.001,10.667 30.557,11.019 31.237 M46.445 30.682 C 45.977 31.189,45.976 31.338,46.435 31.621 C 47.026 31.987,48.688 30.555,48.218 30.085 C 48.074 29.941,47.808 30.063,47.627 30.357 C 47.437 30.664,47.234 30.718,47.148 30.485 C 47.064 30.253,46.761 30.338,46.445 30.682 M139.200 31.000 C 139.200 31.330,139.380 31.600,139.600 31.600 C 139.820 31.600,140.000 31.330,140.000 31.000 C 140.000 30.670,139.820 30.400,139.600 30.400 C 139.380 30.400,139.200 30.670,139.200 31.000 M214.800 31.000 C 214.800 31.330,214.980 31.600,215.200 31.600 C 215.420 31.600,215.600 31.330,215.600 31.000 C 215.600 30.670,215.420 30.400,215.200 30.400 C 214.980 30.400,214.800 30.670,214.800 31.000 M233.206 31.500 C 233.211 32.357,233.298 32.468,233.600 32.000 C 234.106 31.217,234.106 30.400,233.600 30.400 C 233.380 30.400,233.203 30.895,233.206 31.500 M121.232 31.700 C 121.214 32.085,121.470 32.400,121.800 32.400 C 122.130 32.400,122.400 32.209,122.400 31.976 C 122.400 31.743,122.235 31.655,122.034 31.779 C 121.833 31.903,121.577 31.779,121.466 31.502 C 121.344 31.199,121.251 31.278,121.232 31.700 M23.200 32.557 C 23.200 33.084,23.436 33.605,23.725 33.716 C 24.104 33.861,24.202 33.597,24.079 32.759 C 23.874 31.363,23.200 31.209,23.200 32.557 M194.412 33.380 C 194.403 34.241,194.520 34.440,194.841 34.119 C 195.158 33.802,195.161 33.468,194.854 32.939 C 194.477 32.291,194.423 32.346,194.412 33.380 M290.000 32.710 C 290.000 33.127,291.076 34.400,291.429 34.400 C 291.747 34.400,291.603 34.126,290.800 33.200 C 290.360 32.693,290.000 32.472,290.000 32.710 M358.000 33.000 C 358.000 33.330,358.180 33.600,358.400 33.600 C 358.620 33.600,358.800 33.330,358.800 33.000 C 358.800 32.670,358.620 32.400,358.400 32.400 C 358.180 32.400,358.000 32.670,358.000 33.000 M128.400 33.400 C 128.400 33.730,128.580 34.000,128.800 34.000 C 129.020 34.000,129.200 33.730,129.200 33.400 C 129.200 33.070,129.020 32.800,128.800 32.800 C 128.580 32.800,128.400 33.070,128.400 33.400 M156.493 33.600 C 156.962 34.351,157.600 34.680,157.600 34.171 C 157.600 33.873,156.525 32.800,156.225 32.800 C 156.098 32.800,156.218 33.160,156.493 33.600 M180.800 33.600 C 180.800 34.040,180.941 34.400,181.114 34.400 C 181.287 34.400,181.429 34.040,181.429 33.600 C 181.429 33.160,181.287 32.800,181.114 32.800 C 180.941 32.800,180.800 33.160,180.800 33.600 M314.400 33.600 C 314.400 34.040,314.580 34.400,314.800 34.400 C 315.020 34.400,315.200 34.040,315.200 33.600 C 315.200 33.160,315.020 32.800,314.800 32.800 C 314.580 32.800,314.400 33.160,314.400 33.600 M177.200 33.976 C 177.200 34.403,177.380 34.864,177.600 35.000 C 177.827 35.140,178.000 34.804,178.000 34.224 C 178.000 33.661,177.820 33.200,177.600 33.200 C 177.380 33.200,177.200 33.549,177.200 33.976 M369.200 33.800 C 369.200 34.130,369.380 34.400,369.600 34.400 C 369.820 34.400,370.000 34.130,370.000 33.800 C 370.000 33.470,369.820 33.200,369.600 33.200 C 369.380 33.200,369.200 33.470,369.200 33.800 M12.800 33.829 C 12.800 34.253,14.036 35.297,14.267 35.067 C 14.392 34.941,14.217 34.560,13.876 34.219 C 13.241 33.584,12.800 33.424,12.800 33.829 M50.900 34.198 C 50.331 34.845,50.261 35.200,50.704 35.200 C 50.871 35.200,51.232 34.840,51.507 34.400 C 52.078 33.487,51.651 33.345,50.900 34.198 M212.800 34.153 C 212.800 34.483,212.980 34.864,213.200 35.000 C 213.420 35.136,213.600 34.977,213.600 34.647 C 213.600 34.317,213.420 33.936,213.200 33.800 C 212.980 33.664,212.800 33.823,212.800 34.153 M264.686 33.884 C 264.514 34.150,264.602 34.735,264.883 35.184 C 265.424 36.050,266.000 36.265,266.000 35.600 C 266.000 35.380,265.833 35.200,265.628 35.200 C 265.423 35.200,265.198 34.795,265.127 34.300 C 265.042 33.699,264.895 33.561,264.686 33.884 M5.600 34.629 C 5.600 35.051,6.702 35.964,6.933 35.733 C 7.059 35.608,6.913 35.256,6.610 34.952 C 6.033 34.376,5.600 34.237,5.600 34.629 M150.973 34.926 C 150.862 35.215,150.933 35.889,151.130 36.424 C 151.466 37.331,151.501 37.296,151.665 35.897 C 151.833 34.457,151.391 33.837,150.973 34.926 M355.200 34.725 C 355.200 35.113,356.726 36.800,357.078 36.800 C 357.213 36.800,357.026 36.471,356.662 36.069 C 356.298 35.666,356.000 35.126,356.000 34.869 C 356.000 34.611,355.820 34.400,355.600 34.400 C 355.380 34.400,355.200 34.546,355.200 34.725 M303.206 35.071 C 303.218 35.684,303.955 36.578,304.226 36.307 C 304.374 36.159,304.204 35.747,303.848 35.390 C 303.491 35.034,303.203 34.891,303.206 35.071 M251.633 36.100 C 251.905 36.705,252.280 37.200,252.464 37.200 C 252.999 37.200,252.860 36.831,251.969 35.883 L 251.137 35.000 251.633 36.100 M326.400 35.730 C 326.400 36.022,326.868 36.697,327.440 37.230 L 328.481 38.200 327.601 36.700 C 326.660 35.097,326.400 34.886,326.400 35.730 M91.660 36.242 C 91.362 36.578,91.199 36.932,91.295 37.029 C 91.392 37.126,91.798 36.844,92.198 36.402 C 92.597 35.961,92.761 35.607,92.562 35.615 C 92.363 35.624,91.957 35.905,91.660 36.242 M49.089 36.805 C 48.324 37.698,48.235 38.000,48.736 38.000 C 48.920 38.000,49.277 37.550,49.527 37.000 C 50.079 35.790,49.991 35.751,49.089 36.805 M213.600 36.429 C 213.600 37.283,214.774 38.000,216.171 38.000 C 216.957 38.000,217.600 37.820,217.600 37.600 C 217.600 37.380,216.880 37.200,216.000 37.200 C 214.844 37.200,214.400 37.033,214.400 36.600 C 214.400 36.270,214.220 36.000,214.000 36.000 C 213.780 36.000,213.600 36.193,213.600 36.429 M7.200 36.721 C 7.200 37.276,8.776 38.957,9.045 38.688 C 9.177 38.556,8.816 37.979,8.242 37.406 C 7.669 36.833,7.200 36.524,7.200 36.721 M123.200 36.800 C 123.200 37.020,122.480 37.200,121.600 37.200 C 120.720 37.200,120.000 37.380,120.000 37.600 C 120.000 38.214,122.782 38.075,123.429 37.429 C 124.099 36.758,124.158 36.400,123.600 36.400 C 123.380 36.400,123.200 36.580,123.200 36.800 M386.000 36.800 C 386.000 37.020,385.269 37.200,384.376 37.200 C 383.396 37.200,382.851 37.358,383.000 37.600 C 383.505 38.417,386.400 38.077,386.400 37.200 C 386.400 36.760,386.310 36.400,386.200 36.400 C 386.090 36.400,386.000 36.580,386.000 36.800 M111.000 37.600 C 111.136 37.820,111.957 38.000,112.824 38.000 C 113.691 38.000,114.400 37.820,114.400 37.600 C 114.400 37.380,113.579 37.200,112.576 37.200 C 111.463 37.200,110.849 37.356,111.000 37.600 M163.400 37.600 C 163.536 37.820,164.357 38.000,165.224 38.000 C 166.091 38.000,166.800 37.820,166.800 37.600 C 166.800 37.380,165.979 37.200,164.976 37.200 C 163.863 37.200,163.249 37.356,163.400 37.600 M246.200 37.600 C 246.051 37.842,246.596 38.000,247.576 38.000 C 248.469 38.000,249.200 37.820,249.200 37.600 C 249.200 37.380,248.581 37.200,247.824 37.200 C 247.067 37.200,246.336 37.380,246.200 37.600 M341.600 37.600 C 341.600 37.820,342.309 38.000,343.176 38.000 C 344.043 38.000,344.864 37.820,345.000 37.600 C 345.151 37.356,344.537 37.200,343.424 37.200 C 342.421 37.200,341.600 37.380,341.600 37.600 M390.600 37.600 C 390.736 37.820,391.456 38.000,392.200 38.000 C 392.944 38.000,393.664 37.820,393.800 37.600 C 393.951 37.355,393.330 37.200,392.200 37.200 C 391.070 37.200,390.449 37.355,390.600 37.600 M22.800 40.135 C 22.800 40.462,23.075 40.689,23.411 40.640 C 24.210 40.522,24.218 39.837,23.421 39.671 C 23.080 39.600,22.800 39.809,22.800 40.135 M32.265 39.900 C 32.165 40.065,32.514 40.523,33.041 40.919 C 33.569 41.314,34.000 41.449,34.000 41.219 C 34.000 40.988,33.820 40.800,33.600 40.800 C 33.380 40.800,33.200 40.530,33.200 40.200 C 33.200 39.576,32.582 39.378,32.265 39.900 M274.093 40.800 C 273.818 41.240,273.698 41.600,273.825 41.600 C 274.125 41.600,275.200 40.527,275.200 40.229 C 275.200 39.720,274.562 40.049,274.093 40.800 M7.200 44.400 C 7.200 44.620,7.470 44.800,7.800 44.800 C 8.130 44.800,8.400 45.081,8.400 45.424 C 8.400 45.767,8.576 45.938,8.792 45.805 C 9.039 45.653,9.003 45.273,8.696 44.781 C 8.185 43.963,7.200 43.712,7.200 44.400 M36.000 45.429 C 36.000 45.853,37.236 46.897,37.467 46.667 C 37.592 46.541,37.417 46.160,37.076 45.819 C 36.441 45.184,36.000 45.024,36.000 45.429 M28.400 46.400 C 29.182 46.906,30.288 46.906,30.600 46.400 C 30.748 46.160,30.239 46.002,29.324 46.006 C 28.193 46.011,27.955 46.112,28.400 46.400 M16.671 48.845 C 15.503 50.119,15.351 50.691,16.401 49.861 C 17.396 49.074,18.549 47.599,18.162 47.608 C 17.963 47.612,17.292 48.169,16.671 48.845 M35.660 49.543 C 35.279 50.216,35.249 50.609,35.556 50.916 C 36.171 51.531,36.481 51.055,36.327 49.737 L 36.194 48.600 35.660 49.543 M23.200 51.976 C 23.200 53.283,23.391 54.471,23.626 54.616 C 23.914 54.794,23.964 54.414,23.781 53.439 C 23.562 52.271,23.632 52.000,24.155 52.000 C 24.960 52.000,24.971 51.713,24.196 50.939 C 23.864 50.607,23.695 50.170,23.820 49.968 C 23.945 49.765,23.857 49.600,23.624 49.600 C 23.373 49.600,23.200 50.571,23.200 51.976 M29.705 51.476 C 30.077 51.848,30.493 52.040,30.631 51.903 C 31.024 51.509,30.420 50.800,29.691 50.800 C 29.080 50.800,29.081 50.853,29.705 51.476 M17.200 52.200 C 17.200 52.750,17.380 53.200,17.600 53.200 C 17.820 53.200,18.000 52.750,18.000 52.200 C 18.000 51.650,17.820 51.200,17.600 51.200 C 17.380 51.200,17.200 51.650,17.200 52.200 M29.600 53.800 C 29.600 54.350,29.780 54.800,30.000 54.800 C 30.220 54.800,30.400 54.350,30.400 53.800 C 30.400 53.250,30.220 52.800,30.000 52.800 C 29.780 52.800,29.600 53.250,29.600 53.800 " stroke="none" fill="#339999" fill-rule="evenodd"></path><path id="path4" d="" stroke="none" fill="#00ffff" fill-rule="evenodd"></path></g></svg>