<?xml version="1.0" encoding="utf-8"?>
<!-- Generator: Adobe Illustrator 17.0.0, SVG Export Plug-In . SVG Version: 6.00 Build 0)  -->
<!DOCTYPE svg PUBLIC "-//W3C//DTD SVG 1.1//EN" "http://www.w3.org/Graphics/SVG/1.1/DTD/svg11.dtd">
<svg version="1.1" id="Capa_1" xmlns="http://www.w3.org/2000/svg" xmlns:xlink="http://www.w3.org/1999/xlink" x="0px" y="0px"
	 width="64px" height="64px" viewBox="0 0 64 64" enable-background="new 0 0 64 64" xml:space="preserve">
<path d="M35.904,53.621c0,0.553,0.448,1,1,1h15.082c0.552,0,1-0.447,1-1V33.886c0-0.553-0.448-1-1-1c-0.552,0-1,0.447-1,1v18.735
	H37.904V42.184c0-0.553-0.448-1-1-1h-9.812c-0.552,0-1,0.447-1,1v10.662h-13.25V32.539c0-0.553-0.448-1-1-1c-0.552,0-1,0.447-1,1
	v21.307c0,0.553,0.448,1,1,1h15.25c0.552,0,1-0.447,1-1V43.184h7.812V53.621z"/>
<path d="M56.404,29.52L32.456,10.12c-0.363-0.295-0.881-0.299-1.248-0.008L7.435,28.84c-0.434,0.342-0.509,0.97-0.167,1.404
	c0.342,0.433,0.972,0.509,1.404,0.166l23.145-18.233l23.328,18.896c0.185,0.149,0.408,0.223,0.629,0.223
	c0.291,0,0.58-0.127,0.777-0.37C56.899,30.497,56.833,29.867,56.404,29.52z"/>
</svg>
